<svg width="38" height="38" viewBox="0 0 38 38" fill="none" xmlns="http://www.w3.org/2000/svg">
<path fill-rule="evenodd" clip-rule="evenodd" d="M36.2188 14.25C36.2188 20.996 28.5096 26.4643 19 26.4643C9.49041 26.4643 1.78125 20.996 1.78125 14.25C1.78125 7.50467 9.49041 2.03572 19 2.03572C28.5096 2.03572 36.2188 7.50467 36.2188 14.25Z" fill="#FFEE58"/>
<path fill-rule="evenodd" clip-rule="evenodd" d="M26.7188 3.35473C21.7897 1.57265 15.8057 1.57203 10.7967 3.5013C5.43038 5.55944 1.78125 9.60241 1.78125 14.25H18.9536L26.7188 3.35473Z" fill="#FB8C00"/>
<path fill-rule="evenodd" clip-rule="evenodd" d="M36.2188 14.1695C36.2188 17.2134 34.6153 19.8169 32.4521 21.7143V21.6841L27.6524 19.002L19 14.1695L26.7861 3.39287C26.8022 3.39891 26.8238 3.40495 26.8399 3.41099C32.4091 5.41046 36.2188 9.47585 36.2188 14.1695Z" fill="#4DB6AC"/>
<path fill-rule="evenodd" clip-rule="evenodd" d="M36.2188 14.25V23.7772C36.2188 26.5877 34.8854 29.1719 32.6562 31.2143V21.6871C34.7021 19.8168 36.2188 17.2505 36.2188 14.25Z" fill="#26A69A"/>
<path fill-rule="evenodd" clip-rule="evenodd" d="M32.6562 21.9109V21.9355C29.8813 24.3783 25.8172 26.0582 21.185 26.4643V26.452L19 14.25L32.6562 21.9109Z" fill="#42A5F5"/>
<path fill-rule="evenodd" clip-rule="evenodd" d="M32.6562 21.7143V31.4746C29.9273 33.8963 25.9251 35.5617 21.375 35.9643V26.204C25.9305 25.8014 29.9273 24.1361 32.6562 21.7143Z" fill="#1E88E5"/>
<path fill-rule="evenodd" clip-rule="evenodd" d="M21.375 26.2236V35.8744C20.662 35.9347 19.9381 35.9643 19.1979 35.9643C9.58065 35.9643 1.78125 30.5665 1.78125 23.9008V14.25C1.78125 21.4332 10.839 27.1133 21.375 26.2236Z" fill="#FDD835"/>
<path fill-rule="evenodd" clip-rule="evenodd" d="M21.375 26.3708C10.7726 27.2769 1.78125 21.4751 1.78125 14.25H19.1979L21.375 26.3708Z" fill="#FFEE58"/>
</svg>
