<svg width="38" height="38" viewBox="0 0 38 38" fill="none" xmlns="http://www.w3.org/2000/svg">
<path fill-rule="evenodd" clip-rule="evenodd" d="M15.1329 7.49876H19.5092V4.90904H15.1329V7.49876Z" fill="#727272"/>
<path fill-rule="evenodd" clip-rule="evenodd" d="M21.1219 4.89726C21.1219 5.15936 20.9108 5.37093 20.6513 5.37093H13.9912C13.731 5.37093 13.5203 5.15936 13.5203 4.89726V2.02509C13.5203 1.76335 13.731 1.55106 13.9912 1.55106H20.6513C20.9108 1.55106 21.1219 1.76335 21.1219 2.02509V4.89726Z" fill="#3A3A3A"/>
<path fill-rule="evenodd" clip-rule="evenodd" d="M30.9093 16.64L29.708 14.1629L32.1353 12.9713L33.3366 15.4487L30.9093 16.64Z" fill="#727272"/>
<path fill-rule="evenodd" clip-rule="evenodd" d="M33.7858 16.3574C33.6394 16.4294 33.4631 16.3683 33.3915 16.2211L31.5627 12.4517C31.4912 12.3049 31.5515 12.1271 31.6983 12.0555L33.3051 11.2666C33.4515 11.195 33.6279 11.2561 33.6994 11.403L35.5282 15.1723C35.6001 15.3195 35.5394 15.4969 35.3926 15.5685L33.7858 16.3574Z" fill="#3A3A3A"/>
<mask id="mask0_1_196" style="mask-type:alpha" maskUnits="userSpaceOnUse" x="2" y="6" width="31" height="31">
<path fill-rule="evenodd" clip-rule="evenodd" d="M2.43683 6.66572H32.2057V36.608H2.43683V6.66572Z" fill="white"/>
</mask>
<g mask="url(#mask0_1_196)">
<path fill-rule="evenodd" clip-rule="evenodd" d="M32.2057 21.6369C32.2057 29.9056 25.5416 36.6082 17.3209 36.6082C9.1002 36.6082 2.43683 29.9056 2.43683 21.6369C2.43683 13.3683 9.1002 6.66572 17.3209 6.66572C25.5416 6.66572 32.2057 13.3683 32.2057 21.6369Z" fill="#3A3A3A"/>
</g>
<path fill-rule="evenodd" clip-rule="evenodd" d="M29.9931 21.6369C29.9931 28.6758 24.32 34.3823 17.3209 34.3823C10.3228 34.3823 4.64935 28.6758 4.64935 21.6369C4.64935 14.5981 10.3228 8.89155 17.3209 8.89155C24.32 8.89155 29.9931 14.5981 29.9931 21.6369Z" fill="#4CAF50"/>
<mask id="mask1_1_196" style="mask-type:alpha" maskUnits="userSpaceOnUse" x="4" y="8" width="26" height="27">
<path fill-rule="evenodd" clip-rule="evenodd" d="M4.64935 21.6368C4.64935 28.676 10.3228 34.3822 17.3212 34.3822C24.3196 34.3822 29.9931 28.676 29.9931 21.6368C29.9931 14.5979 24.3196 8.89177 17.3212 8.89177C10.3228 8.89177 4.64935 14.5979 4.64935 21.6368Z" fill="white"/>
</mask>
<g mask="url(#mask1_1_196)">
<path fill-rule="evenodd" clip-rule="evenodd" d="M10.4016 9.81257L17.061 21.8436L31.9382 21.6368L28.5753 35.6927L8.70153 36.3394L2.01358 19.3899L10.4016 9.81257Z" fill="#D0D0D0"/>
</g>
<path fill-rule="evenodd" clip-rule="evenodd" d="M17.1156 10.6825H17.5265V9.39307H17.1156V10.6825Z" fill="#FEFEFE"/>
<path fill-rule="evenodd" clip-rule="evenodd" d="M7.78635 16.3386L7.99163 15.9812L6.88101 15.3356L6.67609 15.6937L7.78635 16.3386Z" fill="#FEFEFE"/>
<path fill-rule="evenodd" clip-rule="evenodd" d="M5.14777 21.8436H6.43042V21.4303H5.14777V21.8436Z" fill="#FEFEFE"/>
<path fill-rule="evenodd" clip-rule="evenodd" d="M7.99172 27.2932L7.78643 26.9355L6.67581 27.5804L6.88109 27.9381L7.99172 27.2932Z" fill="#FEFEFE"/>
<path fill-rule="evenodd" clip-rule="evenodd" d="M12.053 31.2273L11.6974 31.0204L11.0562 32.1379L11.4126 32.3444L12.053 31.2273Z" fill="#FEFEFE"/>
<path fill-rule="evenodd" clip-rule="evenodd" d="M17.1156 33.8816H17.5265V32.5918H17.1156V33.8816Z" fill="#FEFEFE"/>
<path fill-rule="evenodd" clip-rule="evenodd" d="M22.9441 31.0203L22.5889 31.2272L23.23 32.3446L23.5856 32.1378L22.9441 31.0203Z" fill="#FEFEFE"/>
<path fill-rule="evenodd" clip-rule="evenodd" d="M26.8558 26.9353L26.6509 27.293L27.7608 27.9383L27.9657 27.5802L26.8558 26.9353Z" fill="#FEFEFE"/>
<path fill-rule="evenodd" clip-rule="evenodd" d="M28.2121 21.8436H29.4947V21.4303H28.2121V21.8436Z" fill="#FEFEFE"/>
<path fill-rule="evenodd" clip-rule="evenodd" d="M26.6508 15.9811L26.8557 16.3384L27.9659 15.6935L27.7607 15.3358L26.6508 15.9811Z" fill="#FEFEFE"/>
<path fill-rule="evenodd" clip-rule="evenodd" d="M22.5887 12.0466L22.944 12.2535L23.5859 11.136L23.2299 10.9299L22.5887 12.0466Z" fill="#FEFEFE"/>
<path fill-rule="evenodd" clip-rule="evenodd" d="M11.6973 12.2536L12.0529 12.0467L11.4125 10.9296L11.0565 11.1361L11.6973 12.2536Z" fill="#FEFEFE"/>
<path fill-rule="evenodd" clip-rule="evenodd" d="M11.872 12.3714L12.0979 12.2424L18.1198 21.6179L16.9871 22.2624L11.872 12.3714Z" fill="white"/>
<path fill-rule="evenodd" clip-rule="evenodd" d="M27.4791 21.627V21.888L17.0614 22.5456L17.061 21.2366L27.4791 21.627Z" fill="white"/>
<path fill-rule="evenodd" clip-rule="evenodd" d="M18.9079 21.6369C18.9079 22.5188 18.1973 23.2332 17.3209 23.2332C16.4449 23.2332 15.7343 22.5188 15.7343 21.6369C15.7343 20.7554 16.4449 20.0407 17.3209 20.0407C18.1973 20.0407 18.9079 20.7554 18.9079 21.6369Z" fill="white"/>
</svg>
