<svg width="38" height="38" viewBox="0 0 38 38" fill="none" xmlns="http://www.w3.org/2000/svg">
<mask id="mask0_1_221" style="mask-type:alpha" maskUnits="userSpaceOnUse" x="2" y="2" width="34" height="35">
<path fill-rule="evenodd" clip-rule="evenodd" d="M2.96899 2.70833H35.3311V36.3686H2.96899V2.70833Z" fill="white"/>
</mask>
<g mask="url(#mask0_1_221)">
<path fill-rule="evenodd" clip-rule="evenodd" d="M35.3313 19.5382C35.3313 28.8335 28.0865 36.3686 19.1504 36.3686C10.2133 36.3686 2.96899 28.8335 2.96899 19.5382C2.96899 10.2439 10.2133 2.70833 19.1504 2.70833C28.0865 2.70833 35.3313 10.2439 35.3313 19.5382Z" fill="#F7AC55"/>
</g>
<mask id="mask1_1_221" style="mask-type:alpha" maskUnits="userSpaceOnUse" x="2" y="2" width="34" height="35">
<path fill-rule="evenodd" clip-rule="evenodd" d="M2.96875 19.5381C2.96875 28.8338 10.2131 36.3684 19.1502 36.3684C28.0863 36.3684 35.3316 28.8338 35.3316 19.5381C35.3316 10.2437 28.0863 2.70819 19.1502 2.70819C10.2131 2.70819 2.96875 10.2437 2.96875 19.5381Z" fill="white"/>
</mask>
<g mask="url(#mask1_1_221)">
<path fill-rule="evenodd" clip-rule="evenodd" d="M3.83875 37.3402H4.38562V21.9663H3.83875V37.3402Z" fill="#CB854F"/>
<path fill-rule="evenodd" clip-rule="evenodd" d="M5.55737 37.3402H6.10473V21.9663H5.55737V37.3402Z" fill="#CB854F"/>
<path fill-rule="evenodd" clip-rule="evenodd" d="M7.27545 37.3402H7.82232V21.9663H7.27545V37.3402Z" fill="#CB854F"/>
<path fill-rule="evenodd" clip-rule="evenodd" d="M8.99359 37.3402H9.54095V21.9663H8.99359V37.3402Z" fill="#CB854F"/>
<path fill-rule="evenodd" clip-rule="evenodd" d="M10.7122 37.3402H11.259V21.9663H10.7122V37.3402Z" fill="#CB854F"/>
<path fill-rule="evenodd" clip-rule="evenodd" d="M12.4303 37.3402H12.9777V21.9663H12.4303V37.3402Z" fill="#CB854F"/>
<path fill-rule="evenodd" clip-rule="evenodd" d="M14.1489 37.3402H14.6962V21.9663H14.1489V37.3402Z" fill="#CB854F"/>
<path fill-rule="evenodd" clip-rule="evenodd" d="M15.867 37.3402H16.4144V21.9663H15.867V37.3402Z" fill="#CB854F"/>
<path fill-rule="evenodd" clip-rule="evenodd" d="M17.5851 37.3402H18.1324V21.9663H17.5851V37.3402Z" fill="#CB854F"/>
<path fill-rule="evenodd" clip-rule="evenodd" d="M19.3037 37.3402H19.8511V21.9663H19.3037V37.3402Z" fill="#CB854F"/>
<path fill-rule="evenodd" clip-rule="evenodd" d="M21.0218 37.3402H21.5691V21.9663H21.0218V37.3402Z" fill="#CB854F"/>
<path fill-rule="evenodd" clip-rule="evenodd" d="M22.7409 37.3402H23.2878V21.9663H22.7409V37.3402Z" fill="#CB854F"/>
<path fill-rule="evenodd" clip-rule="evenodd" d="M24.4585 37.3402H25.0059V21.9663H24.4585V37.3402Z" fill="#CB854F"/>
<path fill-rule="evenodd" clip-rule="evenodd" d="M26.1771 37.3402H26.724V21.9663H26.1771V37.3402Z" fill="#CB854F"/>
<path fill-rule="evenodd" clip-rule="evenodd" d="M27.8952 37.3402H28.4426V21.9663H27.8952V37.3402Z" fill="#CB854F"/>
<path fill-rule="evenodd" clip-rule="evenodd" d="M29.6138 37.3402H30.1607V21.9663H29.6138V37.3402Z" fill="#CB854F"/>
<path fill-rule="evenodd" clip-rule="evenodd" d="M31.3319 37.3402H31.8788V21.9663H31.3319V37.3402Z" fill="#CB854F"/>
<path fill-rule="evenodd" clip-rule="evenodd" d="M33.0505 37.3402H33.5974V21.9663H33.0505V37.3402Z" fill="#CB854F"/>
<path fill-rule="evenodd" clip-rule="evenodd" d="M34.7686 37.3402H35.3155V21.9663H34.7686V37.3402Z" fill="#CB854F"/>
</g>
<mask id="mask2_1_221" style="mask-type:alpha" maskUnits="userSpaceOnUse" x="2" y="2" width="34" height="33">
<path fill-rule="evenodd" clip-rule="evenodd" d="M2.96899 2.26123H35.3311V34.1248H2.96899V2.26123Z" fill="white"/>
</mask>
<g mask="url(#mask2_1_221)">
<path fill-rule="evenodd" clip-rule="evenodd" d="M35.3313 18.1923C35.3313 26.9914 28.0865 34.1248 19.1504 34.1248C10.2133 34.1248 2.96899 26.9914 2.96899 18.1923C2.96899 9.39417 10.2133 2.26123 19.1504 2.26123C28.0865 2.26123 35.3313 9.39417 35.3313 18.1923Z" fill="#FBD79E"/>
</g>
<path fill-rule="evenodd" clip-rule="evenodd" d="M19.1503 2.26113C10.2132 2.26113 2.96887 9.39407 2.96887 18.1922C2.96887 22.5692 4.76204 26.5325 7.66406 29.4113L25.2799 3.44787C23.3888 2.68535 21.3202 2.26113 19.1503 2.26113Z" fill="#FEE5B2"/>
<path fill-rule="evenodd" clip-rule="evenodd" d="M32.4697 18.1923C32.4697 25.4351 26.5063 31.3065 19.1504 31.3065C11.7939 31.3065 5.83099 25.4351 5.83099 18.1923C5.83099 10.9499 11.7939 5.07861 19.1504 5.07861C26.5063 5.07861 32.4697 10.9499 32.4697 18.1923Z" fill="#CB854F"/>
<path fill-rule="evenodd" clip-rule="evenodd" d="M31.9309 18.9815C31.9309 25.9311 26.2087 31.5649 19.1501 31.5649C12.0915 31.5649 6.36932 25.9311 6.36932 18.9815C6.36932 12.0319 12.0915 6.3976 19.1501 6.3976C26.2087 6.3976 31.9309 12.0319 31.9309 18.9815Z" fill="#F7AC55"/>
<path fill-rule="evenodd" clip-rule="evenodd" d="M19.6139 23.7489C20.0671 23.6908 20.3976 23.5881 20.6038 23.4389C20.9669 23.1759 21.1472 22.7205 21.1482 22.0741C21.1472 21.5808 20.9776 21.1925 20.6384 20.9061C20.4361 20.74 20.0954 20.5682 19.6124 20.3907L19.6139 23.7489ZM18.7648 14.7756C18.2589 14.7881 17.8845 14.921 17.6399 15.1753C17.3962 15.4306 17.2728 15.7785 17.2743 16.2186C17.2743 16.7004 17.4566 17.0809 17.8241 17.3612C18.0269 17.5157 18.3403 17.6587 18.7653 17.7902L18.7648 14.7756ZM19.6139 27.3878L18.7687 27.3897V25.6809C17.6208 25.5556 16.7669 25.309 16.203 24.9428C15.2087 24.2854 14.7213 23.1625 14.7378 21.5774L17.0915 21.5769C17.1734 22.2982 17.286 22.7814 17.4327 23.0276C17.6589 23.4115 18.1034 23.6596 18.7687 23.7748L18.7663 20.108L18.0605 19.9021C16.9482 19.5825 16.1659 19.1363 15.7083 18.5633C15.2525 17.9913 15.0244 17.3012 15.023 16.4936C15.023 15.9614 15.1122 15.4786 15.2891 15.0424C15.467 14.6091 15.7151 14.2333 16.0348 13.9185C16.4491 13.5116 16.9073 13.2309 17.4122 13.0759C17.7208 12.9794 18.1702 12.9079 18.7648 12.8618L18.7643 11.7197H19.6095L19.61 12.8781C20.5536 12.953 21.2935 13.1814 21.8335 13.5639C22.8108 14.1772 23.3162 15.1705 23.3523 16.5435L21.059 16.5439C21.0122 16.0343 20.9269 15.6619 20.7997 15.4277C20.5809 15.0213 20.1846 14.7986 19.6104 14.7583V18.0297C20.9883 18.4985 21.9164 18.9141 22.3901 19.2745C23.1719 19.8748 23.5623 20.7223 23.5623 21.8154C23.5633 23.2589 23.0257 24.306 21.95 24.9582C21.2935 25.3593 20.5131 25.595 19.6139 25.6636V27.3878Z" fill="#CB854F"/>
<path fill-rule="evenodd" clip-rule="evenodd" d="M19.6139 22.4114C20.0671 22.3543 20.3976 22.2511 20.6038 22.1019C20.9669 21.8389 21.1472 21.383 21.1482 20.7371C21.1472 20.2438 20.9776 19.8555 20.6384 19.5691C20.4361 19.403 20.0954 19.2312 19.6124 19.0542L19.6139 22.4114ZM18.7648 13.4391C18.2589 13.4511 17.8845 13.584 17.6399 13.8388C17.3962 14.0936 17.2728 14.4415 17.2743 14.8821C17.2743 15.3629 17.4566 15.7439 17.8241 16.0237C18.0269 16.1792 18.3403 16.3217 18.7653 16.4532L18.7648 13.4391ZM19.6139 26.0508L18.7687 26.0532V24.3439C17.6208 24.2186 16.7669 23.972 16.203 23.6063C15.2087 22.9484 14.7213 21.8255 14.7378 20.2404H17.0915C17.1734 20.9617 17.286 21.4449 17.4327 21.6906C17.6589 22.0745 18.1034 22.3231 18.7687 22.4378L18.7663 18.771L18.0605 18.5652C16.9482 18.2456 16.1659 17.7993 15.7083 17.2263C15.2525 16.6543 15.0244 15.9637 15.023 15.157C15.023 14.6249 15.1122 14.1421 15.2891 13.7059C15.467 13.2721 15.7151 12.8963 16.0348 12.582C16.4491 12.1746 16.9073 11.8939 17.4122 11.7393C17.7208 11.6424 18.1702 11.5709 18.7648 11.5243L18.7643 10.3832H19.6095L19.61 11.5416C20.5536 11.616 21.2935 11.8444 21.8335 12.2274C22.8108 12.8402 23.3162 13.8335 23.3523 15.2069H21.059C21.0122 14.6973 20.9269 14.3254 20.7997 14.0912C20.5809 13.6838 20.1846 13.4621 19.6104 13.4218V16.6927C20.9883 17.162 21.9164 17.5776 22.3901 17.9375C23.1719 18.5383 23.5623 19.3853 23.5623 20.4789C23.5633 21.9214 23.0257 22.969 21.95 23.6212C21.2935 24.0223 20.5131 24.258 19.6139 24.3266V26.0508Z" fill="#FBD79E"/>
<mask id="mask3_1_221" style="mask-type:alpha" maskUnits="userSpaceOnUse" x="14" y="10" width="10" height="17">
<path fill-rule="evenodd" clip-rule="evenodd" d="M18.7642 10.3834L18.7646 11.5245C18.1705 11.5711 17.7211 11.6421 17.4121 11.7395C16.9076 11.8941 16.449 12.1748 16.0347 12.5822C15.7149 12.8965 15.4673 13.2723 15.2889 13.7061C15.112 14.1418 15.0228 14.6251 15.0228 15.1568C15.0248 15.9639 15.2524 16.6545 15.7086 17.2265C16.1663 17.799 16.9486 18.2457 18.0608 18.5653L18.7661 18.7712L18.7685 22.4375C18.1037 22.3233 17.6592 22.0747 17.433 21.6908C17.2859 21.4451 17.1737 20.9614 17.0914 20.2401H14.7377C14.7216 21.8257 15.209 22.9486 16.2028 23.6065C16.7668 23.9717 17.6212 24.2183 18.7685 24.3441V26.0529L19.6137 26.051V24.3268C20.513 24.2577 21.2938 24.023 21.9498 23.6209C23.026 22.9692 23.5632 21.9216 23.5622 20.4786C23.5622 19.3855 23.1718 18.538 22.3905 17.9377C21.9162 17.5778 20.9887 17.1617 19.6103 16.6929V13.4215C20.1845 13.4618 20.5812 13.684 20.7996 14.0914C20.9273 14.3256 21.0126 14.6975 21.0589 15.2071H23.3521C23.3165 13.8337 22.8106 12.8404 21.8334 12.2276C21.2938 11.8446 20.5534 11.6157 19.6098 11.5413L19.6093 10.3834M17.8244 16.0244C17.4564 15.7441 17.2746 15.3636 17.2746 14.8818C17.2732 14.4413 17.3965 14.0933 17.6397 13.839C17.8849 13.5842 18.2587 13.4513 18.7646 13.4388L18.7651 16.4529C18.3401 16.3219 18.0267 16.1794 17.8244 16.0244ZM19.6127 19.0543C20.0958 19.2314 20.4364 19.4032 20.6382 19.5693C20.978 19.8553 21.1471 20.244 21.1486 20.7368C21.1471 21.3832 20.9672 21.8386 20.6041 22.1021C20.3979 22.2513 20.067 22.3545 19.6137 22.4116" fill="white"/>
</mask>
<g mask="url(#mask3_1_221)">
<path fill-rule="evenodd" clip-rule="evenodd" d="M22.5503 3.27997C13.6137 3.27997 6.36938 10.4124 6.36938 19.211C6.36938 23.5871 8.16207 27.5509 11.0641 30.4301L28.6799 4.46623C26.7888 3.7037 24.7202 3.27997 22.5503 3.27997Z" fill="#FEE5B2"/>
</g>
</svg>
