<svg width="38" height="38" viewBox="0 0 38 38" fill="none" xmlns="http://www.w3.org/2000/svg">
<mask id="mask0_1_206" style="mask-type:alpha" maskUnits="userSpaceOnUse" x="2" y="3" width="34" height="33">
<path fill-rule="evenodd" clip-rule="evenodd" d="M2.96875 3.04178H35.0088V35.0147H2.96875V3.04178Z" fill="white"/>
</mask>
<g mask="url(#mask0_1_206)">
<path fill-rule="evenodd" clip-rule="evenodd" d="M23.7157 29.9292H9.48228C9.13077 29.9292 8.07725 29.2142 8.07725 28.0649V14.334C8.07725 13.2741 8.20602 12.7371 9.08777 13.6259C12.6513 17.217 21.1651 25.6927 24.5606 29.0748C25.3417 29.8528 24.8331 29.9292 23.7157 29.9292ZM33.8765 29.7201L30.9767 32.607C30.7327 32.8495 30.3376 32.8495 30.0934 32.607C29.8495 32.3642 29.8495 31.9709 30.0937 31.728L32.9951 28.84L31.7676 27.6144L30.2693 29.1058C30.0477 29.3267 29.688 29.3264 29.4663 29.1058C29.2449 28.8854 29.245 28.5276 29.4663 28.3069L30.9659 26.8138L29.7392 25.589L26.8324 28.4822C26.5887 28.7246 26.1934 28.7246 25.9496 28.4822C25.7057 28.239 25.7061 27.8456 25.9497 27.6032L28.8573 24.7085L27.8555 23.7081L26.3508 25.2057C26.1294 25.4263 25.7696 25.4263 25.5482 25.2057C25.3265 24.9851 25.3268 24.6272 25.5482 24.4067L27.0537 22.9075L25.913 21.7688L23.0011 24.6677C22.757 24.9105 22.3621 24.9105 22.1181 24.6677C21.8744 24.4252 21.8744 24.0315 22.1181 23.7886L25.0319 20.8883L24.0295 19.8883L22.5197 21.3915C22.298 21.6117 21.9382 21.6117 21.7167 21.3915C21.4951 21.1705 21.4951 20.813 21.7167 20.5924L23.2281 19.0876L22.0022 17.8638L19.0841 20.7686C18.8405 21.0115 18.4453 21.0118 18.2012 20.7686C17.9575 20.5263 17.9575 20.1324 18.2012 19.8896L21.121 16.9834L19.936 15.8004L18.2359 17.4926C18.0144 17.7131 17.6545 17.7131 17.4327 17.4926C17.2115 17.2716 17.2116 16.914 17.4327 16.6938L19.1343 14.9997L17.8652 13.7329L14.9402 16.6442C14.6965 16.8867 14.3013 16.8869 14.0572 16.6442C13.8135 16.4013 13.8138 16.0076 14.0574 15.7648L16.9834 12.8522L15.5987 11.4696L14.0752 12.986C13.8535 13.2062 13.494 13.2062 13.2723 12.986C13.0508 12.7652 13.0509 12.4071 13.2723 12.1868L14.797 10.6687L13.4119 9.28609L10.4803 12.2047C10.2367 12.4472 9.84135 12.4472 9.59762 12.2047C9.35374 11.9615 9.35374 11.5682 9.59762 11.3253L12.5306 8.40609L11.2039 7.08108L9.67385 8.60416C9.45205 8.82516 9.09247 8.8248 8.87096 8.60416C8.6491 8.38352 8.6491 8.02528 8.87096 7.80501L10.4023 6.28069L9.33107 5.21087L6.39327 8.13542C6.14925 8.3779 5.75401 8.37826 5.50998 8.13542C5.26624 7.89301 5.26639 7.49921 5.50998 7.25607L8.44909 4.33035L8.17337 4.05559C7.33446 3.21773 6.4632 3.04172 5.88013 3.04172C4.4685 3.04172 2.96875 4.14769 2.96875 6.19655V31.2856C2.96875 33.3418 4.64921 35.0147 6.715 35.0147H31.8337C33.2089 35.0147 34.3134 34.3365 34.7874 33.2004C35.2612 32.064 34.9644 30.8067 33.9929 29.8366L33.8765 29.7201Z" fill="#F0C84A"/>
</g>
<path fill-rule="evenodd" clip-rule="evenodd" d="M8.4886 4.23621L5.48199 7.22898C5.22036 7.48906 5.22036 7.91127 5.48199 8.17135C5.74326 8.43136 6.16697 8.43136 6.42853 8.17135L9.43522 5.17844C9.69649 4.9177 9.69649 4.49622 9.43522 4.23621C9.17373 3.97577 8.75009 3.97577 8.4886 4.23621Z" fill="#E15B49"/>
<path fill-rule="evenodd" clip-rule="evenodd" d="M12.5628 8.2913L9.55608 11.2844C9.29437 11.5449 9.29437 11.9668 9.55608 12.2268C9.81743 12.4872 10.2411 12.4872 10.5026 12.2268L13.5095 9.23367C13.7707 8.9733 13.7707 8.55174 13.5095 8.29166C13.248 8.03122 12.8242 8.03122 12.5628 8.2913Z" fill="#E15B49"/>
<path fill-rule="evenodd" clip-rule="evenodd" d="M10.4904 6.11587L8.75146 7.84651C8.54382 8.05335 8.56011 8.40531 8.78829 8.6323C9.01625 8.85929 9.36996 8.87551 9.5776 8.66889L11.3162 6.93795C11.5243 6.73112 11.508 6.37916 11.2798 6.1518C11.0517 5.92525 10.6983 5.90867 10.4904 6.11587Z" fill="#E15B49"/>
<path fill-rule="evenodd" clip-rule="evenodd" d="M17.0223 12.7308L14.0156 15.7239C13.7541 15.9841 13.7541 16.4059 14.0156 16.6664C14.277 16.9264 14.7008 16.9264 14.9621 16.6664L17.9689 13.6731C18.2302 13.4127 18.2302 12.9909 17.9689 12.7308C17.7073 12.4705 17.2837 12.4705 17.0223 12.7308Z" fill="#E15B49"/>
<path fill-rule="evenodd" clip-rule="evenodd" d="M14.9497 10.5547L13.2109 12.2856C13.0033 12.4922 13.0196 12.8445 13.2478 13.0713C13.4757 13.2983 13.8293 13.3149 14.0371 13.1081L15.776 11.3768C15.9838 11.1702 15.9673 10.8182 15.739 10.5913C15.511 10.364 15.1576 10.3478 14.9497 10.5547Z" fill="#E15B49"/>
<path fill-rule="evenodd" clip-rule="evenodd" d="M21.1883 16.8774L18.1815 19.8707C17.9199 20.1311 17.9199 20.5526 18.1815 20.813C18.4427 21.0731 18.8665 21.0731 19.1278 20.813L22.1349 17.8199C22.3962 17.5595 22.3962 17.1378 22.1349 16.8774C21.8734 16.6174 21.4496 16.6174 21.1883 16.8774Z" fill="#E15B49"/>
<path fill-rule="evenodd" clip-rule="evenodd" d="M19.0791 15.0305L17.3403 16.7613C17.1323 16.9682 17.1488 17.3202 17.3768 17.5471C17.6051 17.7741 17.9583 17.7902 18.1664 17.5838L19.9051 15.8528C20.1131 15.6459 20.0965 15.294 19.8685 15.0669C19.6403 14.8401 19.2868 14.8238 19.0791 15.0305Z" fill="#E15B49"/>
<path fill-rule="evenodd" clip-rule="evenodd" d="M25.0878 20.7592L22.0811 23.7527C21.8196 24.0128 21.8196 24.4347 22.0811 24.6951C22.3425 24.9551 22.7662 24.9551 23.0276 24.6951L26.0344 21.7019C26.2958 21.4415 26.2958 21.0199 26.0344 20.7595C25.7729 20.4991 25.3492 20.4991 25.0878 20.7592Z" fill="#E15B49"/>
<path fill-rule="evenodd" clip-rule="evenodd" d="M23.3732 18.9396L21.6344 20.6709C21.4265 20.8778 21.4431 21.2296 21.6711 21.4563C21.8992 21.6836 22.2526 21.6998 22.4605 21.4929L24.1995 19.7623C24.4073 19.555 24.3909 19.2034 24.1626 18.9761C23.9345 18.7491 23.5811 18.7329 23.3732 18.9396Z" fill="#E15B49"/>
<path fill-rule="evenodd" clip-rule="evenodd" d="M28.9141 24.5684L25.9076 27.5612C25.646 27.8216 25.646 28.2435 25.9076 28.504C26.1689 28.7637 26.5927 28.7637 26.8538 28.504L29.861 25.5107C30.1222 25.2504 30.1222 24.8285 29.861 24.5684C29.5993 24.3081 29.1755 24.3081 28.9141 24.5684Z" fill="#E15B49"/>
<path fill-rule="evenodd" clip-rule="evenodd" d="M27.1904 22.7397L25.4518 24.4706C25.2437 24.6775 25.2603 25.0294 25.4882 25.2564C25.7164 25.4833 26.0699 25.4995 26.2778 25.2926L28.0164 23.562C28.2244 23.3551 28.208 23.0033 27.9797 22.7759C27.7517 22.549 27.3982 22.5322 27.1904 22.7397Z" fill="#E15B49"/>
<path fill-rule="evenodd" clip-rule="evenodd" d="M32.97 28.7516L29.9633 31.7448C29.7016 32.0053 29.7016 32.4269 29.9633 32.6873C30.2245 32.9473 30.6482 32.9473 30.9098 32.6873L33.9165 29.694C34.1779 29.434 34.1779 29.012 33.9165 28.7516C33.655 28.4916 33.2314 28.4916 32.97 28.7516Z" fill="#E15B49"/>
<path fill-rule="evenodd" clip-rule="evenodd" d="M31.0719 26.7128L29.3331 28.4438C29.1254 28.6507 29.1417 29.0024 29.3698 29.2296C29.5979 29.4566 29.9514 29.4731 30.1593 29.2662L31.898 27.5354C32.1059 27.3284 32.0896 26.9764 31.8612 26.7493C31.6333 26.5221 31.2798 26.506 31.0719 26.7128Z" fill="#E15B49"/>
</svg>
