<svg width="38" height="38" viewBox="0 0 38 38" fill="none" xmlns="http://www.w3.org/2000/svg">
<path fill-rule="evenodd" clip-rule="evenodd" d="M38 19.5938C38 19.1461 37.05 19.0612 36.8125 19.4406C36.3577 20.1661 36.2312 21.2408 34.2309 21.3625C31.9432 5.1306 12.334 9.1485 9.5 14.25C5.34375 11.2813 2.375 12.4688 2.375 12.4688C2.375 14.8438 3.5625 17.8125 4.74525 18.8539C4.68587 18.9109 4.65144 18.9436 4.59266 19H1.55384C0.695875 19 0 19.6959 0 20.5538V24.5712C0 25.4291 0.695875 26.125 1.55384 26.125H1.51169C3.07444 26.125 4.46144 27.0798 5.06884 28.5202C5.85319 30.381 7.27759 31.9924 9.04103 33.2102L7.77634 36.3713C7.63028 36.7377 7.67481 37.1527 7.89569 37.4781C8.11656 37.8047 8.48528 38 8.87894 38H11.3044C11.6648 38 12.0062 37.8361 12.2318 37.5547L14.0006 35.343C14.8669 35.5258 15.7474 35.625 16.625 35.625H21.9688C22.4984 35.625 23.025 35.587 23.5457 35.5187L25.1744 37.5547C25.4 37.8361 25.7414 38 26.1018 38H28.5273C28.921 38 29.2897 37.8047 29.5106 37.4781C29.7314 37.1527 29.776 36.7377 29.6299 36.3713L28.5784 33.7434C31.4094 32.0334 33.5611 29.295 34.2226 26.1018C37.5879 25.8608 38 22.4562 38 19.5938Z" fill="#FBC8C8"/>
<path fill-rule="evenodd" clip-rule="evenodd" d="M9.5 14.25C5.34375 11.2812 2.375 12.4687 2.375 12.4687C2.375 14.8437 3.5625 17.8125 4.74525 18.8539C4.68587 18.9109 4.65144 18.9436 4.59266 19H1.55384C0.695875 19 0 19.6959 0 20.5538V24.5712C0 26.318 2.10603 26.125 1.51169 26.125C3.07444 26.125 4.46144 27.0798 5.06884 28.5202C5.57888 29.7308 6.365 30.8323 7.33341 31.7929L27.7786 11.3466C21.0609 7.83037 11.4226 10.7896 9.5 14.25Z" fill="#FFEBEE"/>
<path fill-rule="evenodd" clip-rule="evenodd" d="M27.8642 14.2639C27.8037 14.1089 27.6837 13.9848 27.5305 13.9201C26.9647 13.6802 26.4018 13.4712 25.8401 13.2854L24.4181 14.7074C25.0504 14.8855 25.6881 15.0975 26.3329 15.3534C26.9219 15.5874 27.5887 15.319 27.8512 14.7425C27.9194 14.591 27.9248 14.4189 27.8642 14.2639Z" fill="#733725"/>
<path fill-rule="evenodd" clip-rule="evenodd" d="M13.0726 13.9099C12.9194 13.9811 12.8019 14.1112 12.7473 14.2709C12.6914 14.4294 12.7033 14.6046 12.7799 14.7548C13.0625 15.3129 13.7311 15.5552 14.3064 15.3082C17.5632 13.9123 20.9012 13.7151 24.418 14.7073L25.84 13.2853C21.4142 11.8187 17.1309 12.0241 13.0726 13.9099Z" fill="#8F4E38"/>
<path fill-rule="evenodd" clip-rule="evenodd" d="M25.5312 6.23438C25.5312 9.67753 22.74 12.4688 19.2969 12.4688C15.8537 12.4688 13.0625 9.67753 13.0625 6.23438C13.0625 2.79122 15.8537 0 19.2969 0C22.74 0 25.5312 2.79122 25.5312 6.23438Z" fill="#FDD835"/>
<path fill-rule="evenodd" clip-rule="evenodd" d="M19.2969 0C15.8537 0 13.0625 2.79122 13.0625 6.23438C13.0625 7.95388 13.759 9.51128 14.8847 10.6382L23.7013 1.82222C22.5738 0.696469 21.0164 0 19.2969 0Z" fill="#FFEE58"/>
<path fill-rule="evenodd" clip-rule="evenodd" d="M19.8101 6.72695V8.63408C20.481 8.56045 20.8479 8.22498 20.8479 7.72267C20.8479 7.26133 20.617 6.97811 19.8101 6.72695ZM18.9824 5.27048V3.4162C18.312 3.47855 17.9766 3.8348 17.9766 4.29614C17.9766 4.7367 18.1761 5.00864 18.9824 5.27048ZM19.4021 1.6973C19.6527 1.6973 19.8522 1.8968 19.8522 2.14795V2.37892C20.4703 2.45195 20.994 2.65086 21.4761 2.95545C21.6441 3.04926 21.7902 3.20601 21.7902 3.45776C21.7902 3.78255 21.529 4.0343 21.2042 4.0343C21.0991 4.0343 20.994 4.00283 20.8895 3.93989C20.5226 3.7202 20.1669 3.56226 19.8101 3.47855V5.49076C21.4031 5.88858 22.0841 6.52745 22.0841 7.64905C22.0841 8.80152 21.1834 9.56686 19.8522 9.69214V10.3209C19.8522 10.5727 19.6527 10.7716 19.4021 10.7716C19.1504 10.7716 18.9408 10.5727 18.9408 10.3209V9.67195C18.1547 9.58705 17.4315 9.30442 16.7926 8.85377C16.6145 8.73858 16.5094 8.57114 16.5094 8.35086C16.5094 8.02608 16.7611 7.77492 17.0859 7.77492C17.2118 7.77492 17.3377 7.81648 17.4315 7.8907C17.9243 8.24636 18.4064 8.48683 18.9824 8.59192V6.52745C17.4529 6.12964 16.7404 5.55311 16.7404 4.36917C16.7404 3.24817 17.631 2.47273 18.9408 2.36823V2.14795C18.9408 1.8968 19.1504 1.6973 19.4021 1.6973Z" fill="#733725"/>
<path fill-rule="evenodd" clip-rule="evenodd" d="M17.4316 7.8907C17.3377 7.81648 17.2113 7.77492 17.086 7.77492C16.7612 7.77492 16.5095 8.02607 16.5095 8.35085C16.5095 8.53967 16.5902 8.68751 16.725 8.79914L17.5533 7.97086C17.5129 7.94295 17.4719 7.9192 17.4316 7.8907Z" fill="#8F4E38"/>
<path fill-rule="evenodd" clip-rule="evenodd" d="M18.9826 3.41638V5.27066C18.1757 5.00882 17.9768 4.73688 17.9768 4.29572C17.9768 3.83497 18.3117 3.47872 18.9826 3.41638ZM16.7406 4.36935C16.7406 5.55328 17.4531 6.12982 18.9826 6.52763V6.54128L19.9831 5.54082C19.9237 5.52478 19.872 5.50638 19.8103 5.49094V3.47872C20.1665 3.56244 20.5228 3.71978 20.8891 3.93947C20.9942 4.00241 21.0987 4.03447 21.2038 4.03447C21.5286 4.03447 21.7904 3.78272 21.7904 3.45794C21.7904 3.20619 21.6438 3.04885 21.4764 2.95563C20.9942 2.65103 20.4705 2.45213 19.8524 2.3785V2.14813C19.8524 1.89638 19.6529 1.69747 19.4018 1.69747C19.15 1.69747 18.9404 1.89638 18.9404 2.14813V2.36782C17.6312 2.47291 16.7406 3.24835 16.7406 4.36935Z" fill="#8F4E38"/>
<path fill-rule="evenodd" clip-rule="evenodd" d="M9.70034 18.4062C9.07334 18.4062 8.53956 18.7963 8.32224 19.3462L8.44634 19.4174L9.23365 19.8722L8.44634 20.3264L8.31274 20.4042C8.52174 20.9701 9.06146 21.375 9.70034 21.375C10.5197 21.375 11.1847 20.7106 11.1847 19.8906C11.1847 19.0707 10.5197 18.4062 9.70034 18.4062Z" fill="#5C1700"/>
</svg>
