<svg width="38" height="38" viewBox="0 0 38 38" fill="none" xmlns="http://www.w3.org/2000/svg">
<path fill-rule="evenodd" clip-rule="evenodd" d="M36.2188 19C36.2188 28.5096 28.5097 36.2188 19 36.2188C9.49038 36.2188 1.78125 28.5096 1.78125 19C1.78125 9.49031 9.49038 1.78125 19 1.78125C28.5097 1.78125 36.2188 9.49031 36.2188 19Z" fill="#FFD359"/>
<path fill-rule="evenodd" clip-rule="evenodd" d="M36.2188 19C36.2188 28.5077 28.5078 36.2187 19 36.2187C11.3789 36.2187 4.91807 31.2627 2.65717 24.4051C5.73416 29.0542 11.0121 32.1162 17.0087 32.1162C26.5164 32.1162 34.2274 24.4051 34.2274 14.8974C34.2274 13.0109 33.9204 11.1917 33.3515 9.49225C35.1632 12.2173 36.2188 15.4889 36.2188 19Z" fill="#F6CB53"/>
<path fill-rule="evenodd" clip-rule="evenodd" d="M27.5749 15.9913C27.5749 17.18 26.6112 18.1436 25.4225 18.1436C24.2338 18.1436 23.2702 17.18 23.2702 15.9913C23.2702 14.8026 24.2338 13.8389 25.4225 13.8389C26.6112 13.8389 27.5749 14.8026 27.5749 15.9913Z" fill="#414141"/>
<path fill-rule="evenodd" clip-rule="evenodd" d="M25.4226 14.2133C24.4422 14.2133 23.6446 15.0109 23.6446 15.9913C23.6446 16.9717 24.4422 17.7693 25.4226 17.7693C26.403 17.7693 27.2006 16.9717 27.2006 15.9913C27.2006 15.0109 26.403 14.2133 25.4226 14.2133ZM25.4226 18.518C24.0295 18.518 22.8959 17.3844 22.8959 15.9913C22.8959 14.5982 24.0295 13.4646 25.4226 13.4646C26.8157 13.4646 27.9493 14.5982 27.9493 15.9913C27.9493 17.3844 26.8157 18.518 25.4226 18.518Z" fill="#414141"/>
<path fill-rule="evenodd" clip-rule="evenodd" d="M14.7299 15.9913C14.7299 17.18 13.7663 18.1436 12.5776 18.1436C11.3889 18.1436 10.4252 17.18 10.4252 15.9913C10.4252 14.8026 11.3889 13.8389 12.5776 13.8389C13.7663 13.8389 14.7299 14.8026 14.7299 15.9913Z" fill="#414141"/>
<path fill-rule="evenodd" clip-rule="evenodd" d="M12.5776 14.2133C11.5972 14.2133 10.7995 15.0109 10.7995 15.9913C10.7995 16.9717 11.5972 17.7693 12.5776 17.7693C13.558 17.7693 14.3556 16.9717 14.3556 15.9913C14.3556 15.0109 13.558 14.2133 12.5776 14.2133ZM12.5776 18.518C11.1845 18.518 10.0509 17.3844 10.0509 15.9913C10.0509 14.5982 11.1845 13.4646 12.5776 13.4646C13.9707 13.4646 15.1042 14.5982 15.1042 15.9913C15.1042 17.3844 13.9707 18.518 12.5776 18.518Z" fill="#414141"/>
<path fill-rule="evenodd" clip-rule="evenodd" d="M23.7352 22.7384C24.2189 22.7384 24.5917 23.1948 24.4675 23.6622C23.9193 25.7272 22.2297 27.3283 20.1174 27.7468C17.2261 28.3494 14.3082 26.5553 13.5374 23.6573C13.4135 23.1916 13.7873 22.7384 14.2691 22.7384H23.7352Z" fill="#414141"/>
<path fill-rule="evenodd" clip-rule="evenodd" d="M21.3003 27.365C20.9259 27.5372 20.5292 27.6645 20.1174 27.7468C17.8838 28.2123 15.4313 27.3381 13.9486 24.7448C15.3111 24.0635 16.9507 23.9662 18.4629 24.6025C19.773 25.1565 20.7612 26.1597 21.3003 27.365Z" fill="#F76D5D"/>
</svg>
