<svg width="38" height="38" viewBox="0 0 38 38" fill="none" xmlns="http://www.w3.org/2000/svg">
<path fill-rule="evenodd" clip-rule="evenodd" d="M36.2545 19.1862C36.2545 28.8721 28.4019 36.7246 18.716 36.7246C9.02952 36.7246 1.17755 28.8721 1.17755 19.1862C1.17755 9.50024 9.02952 1.64769 18.716 1.64769C28.4019 1.64769 36.2545 9.50024 36.2545 19.1862Z" fill="#D32F2F"/>
<path fill-rule="evenodd" clip-rule="evenodd" d="M18.716 1.64769C9.02952 1.64769 1.17755 9.50024 1.17755 19.1861C1.17755 24.1127 3.21143 28.5616 6.48235 31.7472L31.2776 6.9519C28.0915 3.68157 23.6426 1.64769 18.716 1.64769Z" fill="#EF5350"/>
<path fill-rule="evenodd" clip-rule="evenodd" d="M31.2436 19.1862C31.2436 26.1045 25.6348 31.7139 18.7159 31.7139C11.7975 31.7139 6.18872 26.1045 6.18872 19.1862C6.18872 12.2672 11.7975 6.65843 18.7159 6.65843C25.6348 6.65843 31.2436 12.2672 31.2436 19.1862Z" fill="#F0F0F0"/>
<path fill-rule="evenodd" clip-rule="evenodd" d="M18.716 6.65854C11.7977 6.65854 6.1889 12.2673 6.1889 19.1863C6.1889 22.7284 7.66506 25.9216 10.0292 28.2004L27.7302 10.4989C25.4514 8.13528 22.2588 6.65854 18.716 6.65854Z" fill="white"/>
<path fill-rule="evenodd" clip-rule="evenodd" d="M26.2323 19.1861C26.2323 23.3374 22.8673 26.7025 18.7159 26.7025C14.5646 26.7025 11.1995 23.3374 11.1995 19.1861C11.1995 15.0347 14.5646 11.6697 18.7159 11.6697C22.8673 11.6697 26.2323 15.0347 26.2323 19.1861Z" fill="#D32F2F"/>
<path fill-rule="evenodd" clip-rule="evenodd" d="M18.716 11.6694C14.5646 11.6694 11.1996 15.0345 11.1996 19.1858C11.1996 21.3448 12.1145 23.2857 13.5725 24.6572L24.1868 14.0424C22.8159 12.5849 20.875 11.6694 18.716 11.6694Z" fill="#EF5350"/>
<path fill-rule="evenodd" clip-rule="evenodd" d="M21.2214 19.1861C21.2214 20.5699 20.0995 21.6912 18.7157 21.6912C17.3325 21.6912 16.2106 20.5699 16.2106 19.1861C16.2106 17.8023 17.3325 16.6804 18.7157 16.6804C20.0995 16.6804 21.2214 17.8023 21.2214 19.1861Z" fill="#E2E4E5"/>
<path fill-rule="evenodd" clip-rule="evenodd" d="M18.716 16.6803C17.3322 16.6803 16.2103 17.8022 16.2103 19.186C16.2103 19.9717 16.5792 20.6633 17.1451 21.1234L20.6528 17.6151C20.1939 17.0492 19.5011 16.6803 18.716 16.6803Z" fill="white"/>
<path fill-rule="evenodd" clip-rule="evenodd" d="M33.0984 3.71635C33.1516 3.66023 33.2107 3.60995 33.2732 3.56669V0.584564C32.1508 1.70703 28.2905 4.48219 28.6729 8.36521L33.0984 3.71635Z" fill="white"/>
<path fill-rule="evenodd" clip-rule="evenodd" d="M34.8749 5.12965C34.8275 5.20098 34.7743 5.26879 34.7117 5.32901L30.3073 9.52187C33.9734 9.83405 36.5942 6.19307 37.6582 5.12965H34.8749Z" fill="white"/>
<path fill-rule="evenodd" clip-rule="evenodd" d="M19.0845 19.9517C18.8495 20.1762 18.4777 20.1715 18.2479 19.9418C18.0182 19.712 18.0135 19.3408 18.238 19.1052L33.0983 3.71635C33.3105 3.49361 33.6034 3.36617 33.9104 3.36207C34.2179 3.35857 34.5143 3.479 34.7317 3.69589C34.9486 3.91337 35.0691 4.20918 35.0656 4.51727C35.0615 4.8242 34.934 5.11709 34.7113 5.3293L19.0845 19.9517Z" fill="#733725"/>
</svg>
